<svg width="32" height="32" viewBox="0 0 32 32" fill="none" xmlns="http://www.w3.org/2000/svg">
<path d="M10.1 23C10.2862 22.8126 10.3907 22.5592 10.3907 22.295C10.3907 22.0308 10.2862 21.7774 10.1 21.59L5.49995 17H29.0499C29.3152 17 29.5695 16.8946 29.7571 16.7071C29.9446 16.5196 30.0499 16.2652 30.0499 16C30.0499 15.7348 29.9446 15.4804 29.7571 15.2929C29.5695 15.1054 29.3152 15 29.0499 15H5.52995L10.1 10.43C10.2896 10.2417 10.3966 9.98578 10.3976 9.71854C10.3985 9.4513 10.2933 9.19463 10.1049 9.005C9.91665 8.81537 9.66073 8.70831 9.39349 8.70737C9.12625 8.70644 8.86958 8.8117 8.67995 9L2.31995 15.37C2.15202 15.5387 2.05774 15.767 2.05774 16.005C2.05774 16.243 2.15202 16.4713 2.31995 16.64L8.67995 23C8.77291 23.0937 8.88351 23.1681 9.00537 23.2189C9.12723 23.2697 9.25794 23.2958 9.38995 23.2958C9.52196 23.2958 9.65267 23.2697 9.77453 23.2189C9.89639 23.1681 10.007 23.0937 10.1 23Z" fill="#A37A00"/>
</svg>
