<svg width="32" height="32" viewBox="0 0 32 32" fill="none" xmlns="http://www.w3.org/2000/svg">
<path d="M21.9001 9C21.7138 9.18736 21.6093 9.44081 21.6093 9.705C21.6093 9.96918 21.7138 10.2226 21.9001 10.41L26.5001 15L2.95005 15C2.68483 15 2.43048 15.1054 2.24294 15.2929C2.05541 15.4804 1.95005 15.7348 1.95005 16C1.95005 16.2652 2.05541 16.5196 2.24294 16.7071C2.43048 16.8946 2.68483 17 2.95005 17L26.4701 17L21.9 21.57C21.7104 21.7583 21.6034 22.0142 21.6024 22.2815C21.6015 22.5487 21.7067 22.8054 21.8951 22.995C22.0834 23.1846 22.3393 23.2917 22.6065 23.2926C22.8738 23.2936 23.1304 23.1883 23.32 23L29.6801 16.63C29.848 16.4613 29.9423 16.233 29.9423 15.995C29.9423 15.757 29.848 15.5287 29.6801 15.36L23.3201 9C23.2271 8.90627 23.1165 8.83188 22.9946 8.78111C22.8728 8.73034 22.7421 8.7042 22.6101 8.7042C22.478 8.7042 22.3473 8.73034 22.2255 8.78111C22.1036 8.83188 21.993 8.90627 21.9001 9Z" fill="#A37A00"/>
</svg>
