<svg width="42" height="42" viewBox="0 0 42 42" fill="none" xmlns="http://www.w3.org/2000/svg">
<g clip-path="url(#clip0_3_1051)">
<path d="M29.8029 12.1972C29.6307 12.0247 29.4137 11.9036 29.1764 11.8476C28.9392 11.7915 28.691 11.8028 28.4597 11.88L16.6472 15.8175C16.454 15.882 16.2785 15.9906 16.1345 16.1346C15.9904 16.2786 15.8819 16.4542 15.8173 16.6473L11.8798 28.4599C11.8027 28.6911 11.7914 28.9393 11.8474 29.1766C11.9034 29.4139 12.0244 29.6309 12.1968 29.8033C12.3692 29.9757 12.5862 30.0967 12.8235 30.1527C13.0608 30.2087 13.309 30.1975 13.5403 30.1203L25.3528 26.1828C25.546 26.1182 25.7215 26.0096 25.8655 25.8656C26.0096 25.7215 26.1181 25.546 26.1827 25.3528L30.1202 13.5403C30.1972 13.309 30.2083 13.0609 30.1523 12.8237C30.0963 12.5864 29.9753 12.3695 29.8029 12.1972ZM15.2002 26.7999L18.1 18.1002L23.9006 23.9006L15.2002 26.7999Z" fill="white"/>
<path d="M21 39.375C17.3658 39.375 13.8131 38.2973 10.7914 36.2783C7.76964 34.2592 5.41447 31.3894 4.02371 28.0318C2.63295 24.6742 2.26906 20.9796 2.97806 17.4152C3.68707 13.8508 5.43712 10.5767 8.00691 8.00692C10.5767 5.43713 13.8508 3.68708 17.4152 2.97808C20.9796 2.26908 24.6742 2.63296 28.0318 4.02372C31.3894 5.41448 34.2592 7.76965 36.2782 10.7914C38.2973 13.8132 39.375 17.3658 39.375 21C39.3695 25.8717 37.4318 30.5422 33.987 33.987C30.5422 37.4318 25.8717 39.3695 21 39.375ZM21 5.25001C17.8849 5.25001 14.8398 6.17373 12.2498 7.90436C9.65969 9.63499 7.64097 12.0948 6.44889 14.9727C5.25681 17.8507 4.94491 21.0175 5.55262 24.0727C6.16034 27.1279 7.66038 29.9343 9.86306 32.1369C12.0657 34.3396 14.8721 35.8397 17.9273 36.4474C20.9825 37.0551 24.1493 36.7432 27.0273 35.5511C29.9052 34.359 32.365 32.3403 34.0956 29.7502C35.8263 27.1602 36.75 24.1151 36.75 21C36.7452 16.8243 35.0843 12.821 32.1317 9.86833C29.179 6.91567 25.1757 5.25477 21 5.25001Z" fill="white"/>
</g>
<defs>
<clipPath id="clip0_3_1051">
<rect width="42" height="42" fill="white"/>
</clipPath>
</defs>
</svg>
