<?xml version="1.0" encoding="UTF-8"?>
<svg id="Layer_2" data-name="Layer 2" xmlns="http://www.w3.org/2000/svg" viewBox="0 0 504.72 509.52">
  <defs>
    <style>
      .cls-1 {
        fill: none;
      }

      .cls-1, .cls-2 {
        stroke-width: 0px;
      }

      .cls-2 {
        fill: #b79253;
      }
    </style>
  </defs>
  <g id="Layer_1-2" data-name="Layer 1">
    <g id="SEAL_RED" data-name="SEAL RED">
      <path class="cls-1" d="m504.72,509.52H0V0h504.72v509.52Zm-254.38-14.97c132.52,0,240.15-107.4,240.39-239.61.24-132.92-107.18-240.69-239.75-240.99C118.04,13.65,10.2,121.31,10.15,254.05c-.05,132.88,107.44,240.49,240.19,240.5Z"/>
      <path class="cls-2" d="m250.34,494.55c-132.74,0-240.23-107.62-240.19-240.5C10.2,121.31,118.04,13.65,250.98,13.95c132.56.3,239.99,108.06,239.75,240.99-.24,132.21-107.87,239.62-240.39,239.61Zm186.84-240.19c.2-102.94-83.42-186.6-186.16-186.91-103.24-.31-187.07,83.38-187.38,186.21-.31,103.29,83.47,187.32,186.44,187.36,103.44.04,187.09-83.4,187.1-186.66Z"/>
      <path class="cls-1" d="m437.17,254.36c-.01,103.26-83.66,186.7-187.1,186.66-102.97-.04-186.75-84.07-186.44-187.36.31-102.83,84.14-186.52,187.38-186.21,102.75.31,186.37,83.97,186.16,186.91Zm-11.99-.18c-.04-97.04-78.94-174.7-174.77-174.69-95.89,0-174.72,77.73-174.75,174.71-.03,97.05,78.88,174.88,174.89,174.81,95.87-.07,174.67-77.82,174.63-174.83Z"/>
      <path class="cls-2" d="m425.18,254.18c.04,97.01-78.77,174.76-174.63,174.83-96.01.07-174.92-77.77-174.89-174.81.03-96.98,78.87-174.7,174.75-174.71,95.83,0,174.73,77.65,174.77,174.69Zm-174.92,163.3c90.35.05,163.25-73.15,163.4-162.95.15-89.97-72.65-163.29-162.84-163.5-90.48-.21-163.49,73.07-163.64,162.95-.15,90.04,72.77,163.4,163.08,163.51Z"/>
      <path class="cls-1" d="m250.26,417.48c-90.31-.11-163.23-73.46-163.08-163.51.15-89.88,73.16-163.16,163.64-162.95,90.19.21,162.99,73.53,162.84,163.5-.15,89.8-73.04,163.01-163.4,162.95Zm-121.1-116.2c-.26-.91-.46-1.64-.68-2.37-.82-2.67-1.83-5.3-2.44-8.02-2.44-10.92-2.27-21.89-.24-32.86.85-4.58,2.21-9,4.51-13.08,1.99-3.53,4.56-6.54,7.86-8.93,7.8-5.66,19.47-.8,21.55,8,1.19,5.05-.31,7.97-5.22,9.66-.83.28-1.69.48-2.55.68-1.4.32-2.8.64-4.22.9-3.74.69-6.75,2.61-8.74,5.78-1.3,2.07-2.57,4.34-3.08,6.69-2.67,12.35.13,23.47,8.33,33.11,2.87,3.37,6.66,5.49,10.98,6.5,5.59,1.31,11.25,1.55,16.9.49,5.9-1.11,10.99-3.82,15.09-8.25,1.35-1.46,2.49-3.06,3.05-5.27-.91-.07-1.6-.16-2.29-.16-2.48-.01-4.96.07-7.44,0-4.29-.12-8.39-1.12-12.17-3.19-6.43-3.52-8.84-9.78-6.4-16.71.28-.79.75-1.73,1.42-2.12,2.61-1.53,5.24-3.1,8.05-4.2,3-1.18,5.83-.45,8.04,2.06.74.84,1.5,1.67,2.14,2.59,2.39,3.41,5.76,5.21,9.73,6.03,1.64.34,3.31.67,4.97.72,8.22.21,16.45-3.03,20.49-12.52,1.72-4.02,2.58-8.24,2.7-12.58.17-5.92-1.12-11.6-3.25-17.08-.51-1.31-1.33-2.58-2.26-3.63-3.12-3.53-6.34-6.98-9.57-10.42-4.63-4.93-10.41-7.58-17.06-8.42-1.29-.16-2.67-.49-4.15.44.43.75.78,1.44,1.19,2.09,1.78,2.75,3.6,5.48,5.36,8.24,2.19,3.45,4.12,7.03,5.39,10.94,1.58,4.87,1.67,9.7-.1,14.57-.73,2.01-1.87,3.47-3.92,4.21-1.2.44-2.39.94-3.49,1.58-3.16,1.83-6.13,1.3-9.02-.58-1-.65-2.01-1.32-2.91-2.1-3.4-2.95-4.28-9.66-.76-13.22.84-.85,1.55-1.83,2.3-2.76,1.69-2.13,2.18-4.56,1.88-7.22-.98-8.58-4.97-15.4-11.92-20.51-7.64-5.62-16.21-7.73-25.57-6.75-7.79.81-14.36,3.95-19.6,9.93-4.63,5.3-8.35,11.09-10.95,17.63-3.13,7.88-4.45,16.07-3.32,24.45,1.71,12.58,5.44,24.63,10.52,36.25,1.01,2.32,2.43,4.5,3.91,6.57,1.58,2.2,3.87,3.19,6.95,2.86Zm187.41-86.94c1.39,0,2.24,0,3.09,0,4.32,0,8.63-.02,12.95,0,3.57.02,6.97.86,10.18,2.39,4.68,2.23,7.08,6.61,6.66,11.96-.37,4.72-3.82,8.85-8.43,10.34-2,.65-3.47.3-4.9-1.29-1.81-2.02-3.76-3.93-5.8-5.72-4.72-4.13-10.33-5.24-16.37-4.26-8.59,1.39-14.86,6.14-18.66,13.89-6.8,13.88-6.32,27.87,1.24,41.13,10.27,18.02,26.62,26.85,46.97,28.38,12.44.93,23.64-2.94,33.67-10.29,2.09-1.54,3.87-3.35,5.13-5.62,1.07-1.94,1.4-3.96.53-6.27-.96.43-1.76.78-2.54,1.15-4.41,2.08-8.79,4.21-13.22,6.23-3.74,1.7-7.69,2.75-11.78,3.03-14.54.99-31.78-5.64-38.63-26.03-1.69-5.03-1.93-10.18-.61-15.36.64-2.54,1.85-4.76,4.01-6.36,2.78-2.05,7.03-2.04,9.63.03,2.51,2,3.01,5.12,1.31,8.69-.62,1.3-1.36,2.53-2.05,3.79-1.22,2.23-1.84,4.59-1.55,7.14.35,3.15,1.31,6.09,3.15,8.7,3.72,5.29,8.64,8.91,14.92,10.61,6.03,1.63,12.06,1.09,18.03-.26,12.58-2.85,21.48-10.45,27.66-21.55,5.08-9.13,5.98-18.74,3.47-28.76-.61-2.43-1.69-4.67-3.52-6.45-1.23-1.2-2.61-2.1-4.61-1.6-.25.81-.51,1.64-.75,2.47-1.7,5.91-3.31,11.85-5.98,17.43-4.7,9.81-12.32,15.23-23.3,15.74-4.05.19-6.62-1.49-7.62-5.41-.37-1.43-.45-3.02-.29-4.49.38-3.6,2.38-5.34,6.03-5.51,1.28-.06,2.56-.02,3.84-.07,8.75-.38,14.62-5.19,16.54-13.62,1.55-6.81,1.16-13.51-1.41-20.01-3.76-9.5-9.78-16.46-20.64-17.74-3.09-.36-6.21-1.2-9.26-.99-6.41.44-12.6,2.05-18.31,5.18-2.7,1.48-5.06,3.37-6.84,5.9-.66.94-1.13,2.02-1.94,3.49Zm-101.2-20.53c-1.36-2.24-2.4-4.12-3.59-5.91-2.17-3.26-4.55-6.39-6.61-9.71-5.37-8.67-5.13-17.38.15-26.02,1.94-3.17,4.48-5.83,7.28-8.24,4.24-3.65,8.51-7.27,12.81-10.85,1.43-1.19,2.49-2.55,2.5-4.44.02-2.54-.11-5.08-.21-7.62-.04-1.03-.76-1.51-1.66-1.8-9.46-3.05-18.73-2.9-27.65,1.85-5.99,3.18-9.76,8.11-11.22,14.77-.18.83-.46,1.64-.72,2.52-.62-.09-1.03-.08-1.38-.21-2.93-1.12-5.97-.96-9-.78-1.23.07-2.42.37-3.15,1.46-1.59,2.39-3.51,4.65-4.59,7.26-2.31,5.61-2.58,11.17,1.92,16.12,1.46,1.61,2.41,3.57,2.62,5.81.22,2.38.02,2.65-2.27,3.47-2.03.72-4.13,1.32-6.04,2.29-3.87,1.98-4.61,6.44-1.77,9.72.42.48.88.95,1.39,1.31,3.34,2.35,5.78,5.46,7.79,8.98.91,1.59,1.99,3.11,3.18,4.49,2.42,2.83,5.54,3.98,9.24,3.23,1.8-.37,3.59-.79,5.33-1.35,2.26-.73,4.39-.59,6.5.45,5.01,2.46,9.54,5.64,13.15,9.87,6.46,7.58,13.93,14.08,21.27,20.75,1.19,1.08,2.16,1.19,3.62.66,6.18-2.27,12.54-3.76,19.13-4.16,7.91-.48,15.65.39,23.13,3.05,1.48.52,2.33.17,3.32-.9,2.43-2.65,4.99-5.18,7.46-7.8,4.44-4.71,8.85-9.45,13.26-14.2.57-.62,1.04-1.34,1.63-2.11-2.85-2.27-5.84-3.77-8.92-5.09-9.2-3.96-18.9-5.84-28.82-6.68-9.1-.77-18.19-.64-27.29.36-9.73,1.07-19.27,2.9-28.39,6.54-1.99.8-3.42.52-4.96-.92-2.28-2.12-4.69-4.1-7.14-6.04-2.56-2.03-5.55-2.8-8.79-2.36-1.18.16-2.32.58-3.47.88-1.9.49-2.82.14-3.87-1.48-.8-1.23-1.01-2.54-.32-3.86.56-1.05,1.17-2.1,1.88-3.05,3.32-4.47,4.64-4.16,2.63-12.27-1.14-4.6-1.65-9.22-.69-13.99,2.35-11.71,12.21-21.91,23.81-24.31,1.38-.29,2.78-.44,4.59.21-.83.96-1.38,1.69-2.03,2.33-2.16,2.14-4.45,4.15-6.51,6.37-2.39,2.57-4.83,5.15-6.83,8.02-7.26,10.42-7.61,22.21-.75,32.06,3.14,4.51,6.9,8.59,10.43,12.82.34.41,1.15.8,1.6.68,2.22-.57,4.39-1.32,7.02-2.15Zm66.43-3.63c.55.27.88.49,1.25.6,4.1,1.2,7.82,3.2,11.43,5.44,1.97,1.23,3.95,2.42,5.92,3.64.96.6,1.87.73,2.91.11,2.48-1.48,5.24-1.88,8.06-1.94,8.04-.17,14.72-3.42,20.12-9.22,1.6-1.72,2.91-3.84,3.84-6,1.7-3.94.76-7.03-2.48-9.87-.9-.79-1.83-1.56-2.65-2.43-2.29-2.43-2.28-3.33.12-5.64,1.81-1.74,2.33-3.76,1.5-6.11-.73-2.07-1.86-3.91-3.54-5.33-1.89-1.59-3.83-3.14-5.81-4.63-1.26-.95-2.16-2.05-2.55-3.62-.78-3.12-2.95-4.88-6.01-5.48-2.03-.4-4.1-.7-6.17-.78-2.11-.08-3.58-.94-4.82-2.62-2.65-3.6-6.1-6.29-10.05-8.36-7.87-4.12-16.45-4.9-25.09-5.35-1.12-.06-1.79.48-1.87,1.69-.31,4.44.61,8.7,1.56,12.98,2.02.45,3.9.8,5.74,1.3,17,4.61,27.26,24.37,15.27,41.32-1.85,2.61-3.61,5.27-5.38,7.93-.47.71-.82,1.49-1.28,2.35Zm-24.84-4.72c.18-1.34.34-2.44.49-3.54.26-1.9.45-3.81.77-5.69,1.41-8.16,4.04-15.93,7.85-23.28.66-1.28.57-2.24-.12-3.53-1.73-3.23-3.47-6.49-4.73-9.91-3.07-8.36-3.95-17.07-3.52-25.94.12-2.47.12-4.95.26-7.43.06-1.09-.31-1.78-1.22-2.37-4.03-2.6-8.01-5.27-12.04-7.86-1.79-1.16-1.96-1.14-3.58.18-2.23,1.82-4.3,3.85-6.63,5.52-1.97,1.41-2.38,3.07-2.12,5.35.43,3.8.82,7.65.74,11.46-.26,12.95-2.73,25.39-9.33,36.74-.7,1.2-.71,2.08.18,3.22,5.89,7.52,9.77,16.06,12.54,25.15.25.82.56,1.61.88,2.55,6.54-.21,12.91-.41,19.58-.62Zm25.46,139.06c.42,1.17.7,2.12,1.09,3.04,2.22,5.22,4.49,10.41,6.68,15.63,1.08,2.59,1.63,5.32,1.77,8.15.49,9.54-3.5,15.5-12.5,18.57-.23.08-.46.13-.69.2-2.68.8-5.35,1.6-8.03,2.39-.94.28-1.74.58-2.04,1.73-.91,3.51-1.3,7.06-1.2,10.67.01.46.23.91.35,1.39,3.52,1.26,6.98.74,10.43,0,6.87-1.45,13.71-3.03,20.59-4.42,2.47-.5,4.49-1.56,6.11-3.46,1.09-1.28,2.12-2.6,3.26-3.83,2.25-2.43,4.95-3.74,8.36-3.04,1.43.29,2.42-.25,3.23-1.46,1.32-1.95,1.68-4.08,1.64-6.37-.06-3.5-1.24-6.73-2.17-10.03-.69-2.44-.29-3.36,2.05-4.26,1.48-.57,3.04-.98,4.59-1.33,1.91-.43,3.02-1.53,3.65-3.38,1.66-4.78,1.06-9.1-2.31-12.97-3.27-3.76-6.88-7.15-11.05-9.86-1.43-.93-3.14-1.56-4.82-1.94-2.87-.66-5.72.1-8.53.7-6.69,1.45-13.18,3.84-20.49,3.87Zm-67.33-2.48c-3.01-1.04-5.53-2.01-8.12-2.78-1.56-.46-3.09-.03-4.13,1.26-2.75,3.42-5.77,6.69-8.05,10.41-4.99,8.13-4.24,17.43,1.64,24.59,1.51,1.84,3.3,3.48,5.13,5.02,4.63,3.91,9.95,6.64,15.57,8.82,2.38.92,4.74,1.91,7.06,2.99,1.35.63,2.6,1.47,3.11,3.11-.4.13-.62.25-.84.25-.48.01-.96,0-1.43-.06-12.93-1.62-23.92-7.14-33.03-16.43-2.37-2.41-4.42-5.1-5.78-8.19-.96-2.17-1.8-4.48-2.13-6.81-.9-6.34,1.11-12.02,4.85-17.07,2.23-3.01,4.75-5.81,7.14-8.71.8-.97,1.6-1.95,2.41-2.95-1.85-2.4-4.35-2.9-6.93-2.96-6.91-.18-12.57,2.64-17.13,7.69-.99,1.09-1.7,2.53-2.22,3.93-1.02,2.75-.67,5.32,1.46,7.54.94.97,1.85,2.01,2.61,3.12,2.17,3.16,1.49,4.66-2.26,4.92-1.79.13-3.07.87-3.77,2.47-.68,1.53-1.43,3.06-1.79,4.68-1.42,6.33.64,11.81,4.41,16.8,2,2.65,4.62,4.37,7.91,5.03,1.02.2,2.08.32,3.02.72.92.39,2.03.88,2.5,1.67.99,1.65,2.43,2.47,4.1,3.1,4.56,1.71,9.09,3.51,13.69,5.11,1.22.42,2.65.32,3.99.33,3.51.04,7.04-.23,10.51.1,3.48.33,6.9,1.25,10.36,1.87.96.17,1.95.2,3.2.32-.44-2.58-.94-4.76-1.16-6.96-.28-2.72-1.63-4.2-4.21-5.14-5.42-1.97-10.53-4.61-15.15-8.13-3.09-2.35-5.77-5.06-7.6-8.52-3.71-7.02-3.71-16.24,3.57-22.48,1.81-1.55,3.41-3.37,5.01-5.15.84-.93,1.47-2.05,2.49-3.49Zm43.38-37.13c4.48.01,8.73-.94,12.75-2.88,14.41-6.95,18.31-24.02,8.36-36.55-8.22-10.35-23.43-14-35.59-8.54-15.83,7.11-19.6,26.03-7.63,38.61,5.99,6.3,13.49,9.17,22.1,9.36Zm-17.18,41.36s-.11.15-.25.35c-3.98,5.89-8,11.77-11.93,17.69-2.01,3.03-2.24,6.29-.62,9.57,1.13,2.29,2.34,4.55,3.63,6.75,3.92,6.71,6.48,13.88,7.42,21.61.51,4.2,1,8.41,1.44,12.62.21,1.96.91,3.48,2.8,4.4,1.36.66,2.65,1.5,3.89,2.37,1.21.86,2.26.87,3.5.02,2.3-1.59,4.64-3.13,7.04-4.57,1.48-.88,1.99-1.99,1.96-3.72-.06-4.31-.08-8.64.23-12.94.47-6.55,2.31-12.74,6.1-18.19,1.15-1.66,1.17-3.06.4-4.89-1.61-3.82-3.23-7.67-4.34-11.65-1.48-5.3-2.46-10.74-3.67-16.12-.24-1.06-.54-2.11-.85-3.32h-16.75Zm-40.98-16.52c.88.47,1.54.91,2.26,1.19,3.28,1.25,6.53,2.63,9.88,3.66,8.83,2.71,17.92,3.92,27.12,4.47,10.79.64,21.6.77,32.34-.32,12.23-1.24,24.41-3.03,36.61-4.6.74-.1,1.46-.4,2.34-.65-.96-2.82-2.51-4.89-4.38-6.78-2.8-2.83-6.06-3.7-9.87-2.49-1.07.34-2.16.6-3.22.95-6.33,2.13-12.88,3.15-19.48,3.82-11.48,1.16-22.99,1.07-34.5.41-5.02-.29-10.04-.81-15-1.65-5.26-.89-10.44-2.3-15.66-3.44-.75-.16-1.74-.44-2.28-.11-2.3,1.42-4.41,3.11-6.17,5.53Zm11.22-11.18c.86.28,1.58.55,2.32.75,9.54,2.54,19.27,3.76,29.1,4.23,10.47.5,20.93.37,31.35-.94,6.42-.81,12.79-1.91,19.01-3.77.72-.22,1.4-.55,2.28-.9-2.67-4.27-5.99-7.45-9.85-10.08-1.17-.8-2.38-.72-3.58.08-.79.53-1.65.97-2.52,1.38-9.16,4.28-18.71,5.08-28.55,3.19-8.06-1.54-15.16-4.91-20.85-10.95-.26-.28-.6-.48-1.04-.82-5.14,4.31-10.4,8.34-14.99,13.14-1.2,1.26-2.18,2.72-2.67,4.69Z"/>
      <path class="cls-2" d="m129.17,301.28c-3.08.32-5.37-.66-6.95-2.86-1.48-2.07-2.9-4.25-3.91-6.57-5.08-11.62-8.82-23.67-10.52-36.25-1.14-8.38.18-16.57,3.32-24.45,2.6-6.53,6.32-12.33,10.95-17.63,5.24-5.99,11.81-9.12,19.6-9.93,9.37-.97,17.94,1.14,25.57,6.75,6.95,5.11,10.94,11.93,11.92,20.51.3,2.66-.19,5.1-1.88,7.22-.75.94-1.46,1.92-2.3,2.76-3.52,3.56-2.64,10.27.76,13.22.9.78,1.91,1.45,2.91,2.1,2.89,1.88,5.86,2.41,9.02.58,1.1-.64,2.29-1.14,3.49-1.58,2.05-.75,3.18-2.2,3.92-4.21,1.77-4.87,1.68-9.7.1-14.57-1.27-3.91-3.2-7.49-5.39-10.94-1.76-2.76-3.58-5.49-5.36-8.24-.42-.64-.76-1.33-1.19-2.09,1.48-.93,2.86-.6,4.15-.44,6.64.84,12.43,3.48,17.06,8.42,3.23,3.44,6.44,6.89,9.57,10.42.94,1.06,1.75,2.32,2.26,3.63,2.13,5.48,3.42,11.16,3.25,17.08-.12,4.34-.99,8.56-2.7,12.58-4.04,9.48-12.27,12.73-20.49,12.52-1.66-.04-3.33-.38-4.97-.72-3.97-.82-7.34-2.62-9.73-6.03-.64-.91-1.4-1.75-2.14-2.59-2.21-2.51-5.05-3.23-8.04-2.06-2.8,1.1-5.43,2.67-8.05,4.2-.66.39-1.14,1.33-1.42,2.12-2.44,6.92-.02,13.19,6.4,16.71,3.79,2.07,7.88,3.07,12.17,3.19,2.48.07,4.96,0,7.44,0,.69,0,1.38.09,2.29.16-.56,2.21-1.7,3.81-3.05,5.27-4.1,4.43-9.19,7.14-15.09,8.25-5.65,1.07-11.31.82-16.9-.49-4.32-1.01-8.11-3.13-10.98-6.5-8.2-9.63-11-20.75-8.33-33.11.51-2.35,1.78-4.62,3.08-6.69,2-3.17,5-5.1,8.74-5.78,1.41-.26,2.82-.58,4.22-.9.86-.2,1.72-.39,2.55-.68,4.91-1.69,6.42-4.61,5.22-9.66-2.08-8.8-13.75-13.66-21.55-8-3.3,2.39-5.87,5.4-7.86,8.93-2.3,4.08-3.66,8.51-4.51,13.08-2.03,10.96-2.2,21.93.24,32.86.61,2.72,1.62,5.34,2.44,8.02.22.73.42,1.46.68,2.37Zm-12.02-35.76c.18-1.41.3-2.4.42-3.39.51-4.03.76-8.12,1.61-12.08,1.46-6.81,4.26-13.04,9.2-18.14,5.21-5.38,11.4-8.03,18.98-7.15,1.1.13,2.39-.21,3.41-.71,1.49-.74,1.56-1.47.74-2.9-2.17-3.78-6.34-5.69-10.87-4.78-6.21,1.24-11.65,4.02-15.78,8.89-8.34,9.82-11.99,21.14-10.26,34.01.28,2.08.7,4.21,2.57,6.26Zm94.13-10.76c-.19-1.58-.3-3.18-.58-4.75-1.45-8.11-5.1-15.08-10.88-20.93-1.36-1.38-2.46-1.67-3.07-1.02-.56.6-.22,1.92.88,3.22.77.91,1.77,1.69,2.34,2.71,4.21,7.56,5.38,15.47,2.44,23.77-1.19,3.37-3.36,5.75-6.92,6.73-.75.21-1.5.59-2.1,1.08-1.28,1.05-1.31,1.79-.22,3.03,1.57,1.78,3.54,2.35,5.85,1.89,7.22-1.45,12.17-7.83,12.26-15.71Zm-58,17.67c-1.17.11-1.95.08-2.68.27-3.71.94-5.88,3.47-6.72,7.07-1.47,6.23.1,11.88,3.8,16.95.91,1.25,2.24,2.34,3.6,3.09,8.07,4.44,16.43,4.64,24.94,1.37.44-.17.77-.6,1.15-.91-.83-.39-1.53-.49-2.19-.37-4.22.74-8.27.04-12.21-1.44-10.1-3.78-14.38-13.14-10.63-23.22.29-.79.55-1.6.95-2.79Z"/>
      <path class="cls-2" d="m316.58,214.33c.81-1.47,1.28-2.54,1.94-3.49,1.78-2.53,4.14-4.42,6.84-5.9,5.71-3.13,11.9-4.74,18.31-5.18,3.05-.21,6.17.63,9.26.99,10.86,1.28,16.87,8.24,20.64,17.74,2.57,6.5,2.97,13.21,1.41,20.01-1.92,8.43-7.79,13.24-16.54,13.62-1.28.05-2.56.01-3.84.07-3.66.17-5.66,1.91-6.03,5.51-.16,1.48-.08,3.06.29,4.49,1,3.92,3.57,5.6,7.62,5.41,10.98-.51,18.61-5.92,23.3-15.74,2.67-5.58,4.28-11.52,5.98-17.43.24-.83.51-1.66.75-2.47,2-.5,3.38.4,4.61,1.6,1.83,1.78,2.91,4.01,3.52,6.45,2.51,10.02,1.61,19.63-3.47,28.76-6.18,11.11-15.08,18.71-27.66,21.55-5.98,1.35-12,1.89-18.03.26-6.28-1.69-11.2-5.31-14.92-10.61-1.83-2.61-2.79-5.55-3.15-8.7-.29-2.55.33-4.92,1.55-7.14.69-1.26,1.44-2.5,2.05-3.79,1.7-3.58,1.2-6.7-1.31-8.69-2.6-2.06-6.86-2.08-9.63-.03-2.16,1.6-3.36,3.82-4.01,6.36-1.31,5.17-1.07,10.33.61,15.36,6.84,20.4,24.08,27.03,38.63,26.03,4.09-.28,8.04-1.33,11.78-3.03,4.43-2.02,8.81-4.15,13.22-6.23.78-.37,1.58-.71,2.54-1.15.87,2.3.54,4.33-.53,6.27-1.26,2.27-3.03,4.08-5.13,5.62-10.03,7.36-21.23,11.23-33.67,10.29-20.35-1.53-36.7-10.36-46.97-28.38-7.55-13.26-8.04-27.25-1.24-41.13,3.8-7.75,10.07-12.5,18.66-13.89,6.04-.98,11.65.12,16.37,4.26,2.04,1.79,3.99,3.7,5.8,5.72,1.43,1.59,2.9,1.94,4.9,1.29,4.61-1.49,8.06-5.62,8.43-10.34.42-5.34-1.98-9.72-6.66-11.96-3.21-1.53-6.61-2.38-10.18-2.39-4.32-.02-8.63,0-12.95,0-.85,0-1.7,0-3.09,0Zm24.98,51.65c-2.41,2.46-3.05,5.02-2.16,7.94.64,2.13,1.96,3.83,3.59,5.28,6.11,5.45,13.13,6.57,20.78,4.12,10.71-3.43,17.89-10.8,22.62-20.75,2.22-4.67,3.49-9.6,3.31-14.82-.02-.71-.03-1.47-.26-2.12-.15-.43-.66-.84-1.1-1.01-.18-.07-.73.5-.9.88-.26.57-.34,1.23-.47,1.85-2.22,10.49-8.18,18.4-16.87,24.39-3.2,2.2-6.72,3.7-10.58,4.25-6.08.86-11.5.09-14.85-5.99-.78-1.42-2-2.61-3.1-4.02Zm-23.48-26.41c-2.11-1.45-3.95-1.9-6.03-1.29-2.03.61-3.79,1.66-5.29,3.16-5.57,5.53-7.53,12.42-6.87,19.97,1.13,12.75,6.8,23.33,16.36,31.81,2.4,2.13,5.06,3.92,8.16,4.93.72.23,1.48.35,2.38.56-.03-1.74-.97-2.64-1.91-3.46-1.2-1.05-2.47-2.03-3.79-2.93-3.24-2.21-5.72-5.08-7.74-8.4-2.39-3.93-4.05-8.16-5.16-12.6-1.1-4.41-1.22-8.85-.08-13.29.83-3.21,2.27-6.12,4.06-8.9,1.98-3.08,3.86-6.23,5.91-9.56Zm34.9,3.56c.9,0,1.76.08,2.59-.01,4.69-.53,7.91-3.17,10.14-7.17,4.85-8.69,2.69-19.28-5.3-25.65-6.4-5.1-13.8-6.89-21.84-5.92-2.19.26-4.3,1.14-6.43,1.81-.41.13-.69.62-1.33,1.23,1.02,0,1.57-.02,2.12,0,2.55.12,5.15-.04,7.62.45,7.23,1.44,13.28,4.92,17.59,11.09,2.53,3.62,3.09,7.67,2.47,11.91-.51,3.52-2.35,6.16-5.46,8.03-1.32.8-2.37,2.13-2.17,4.23Z"/>
      <path class="cls-2" d="m215.38,193.8c-2.63.83-4.81,1.58-7.02,2.15-.46.12-1.26-.27-1.6-.68-3.53-4.23-7.3-8.31-10.43-12.82-6.85-9.85-6.51-21.64.75-32.06,2-2.87,4.44-5.45,6.83-8.02,2.06-2.22,4.35-4.24,6.51-6.37.65-.64,1.21-1.38,2.03-2.33-1.81-.65-3.2-.5-4.59-.21-11.6,2.4-21.47,12.6-23.81,24.31-.96,4.78-.45,9.39.69,13.99,2.01,8.12.69,7.8-2.63,12.27-.71.96-1.32,2-1.88,3.05-.7,1.32-.48,2.63.32,3.86,1.05,1.61,1.97,1.97,3.87,1.48,1.16-.3,2.3-.72,3.47-.88,3.24-.43,6.22.34,8.79,2.36,2.44,1.93,4.86,3.91,7.14,6.04,1.55,1.44,2.98,1.72,4.96.92,9.12-3.65,18.66-5.48,28.39-6.54,9.09-1,18.18-1.13,27.29-.36,9.92.84,19.62,2.73,28.82,6.68,3.08,1.32,6.07,2.82,8.92,5.09-.6.78-1.06,1.49-1.63,2.11-4.4,4.75-8.82,9.48-13.26,14.2-2.47,2.62-5.03,5.15-7.46,7.8-.98,1.07-1.84,1.43-3.32.9-7.48-2.65-15.22-3.53-23.13-3.05-6.59.4-12.96,1.89-19.13,4.16-1.46.54-2.43.42-3.62-.66-7.34-6.66-14.81-13.16-21.27-20.75-3.61-4.23-8.14-7.41-13.15-9.87-2.11-1.04-4.24-1.18-6.5-.45-1.74.56-3.54.99-5.33,1.35-3.7.75-6.81-.4-9.24-3.23-1.19-1.39-2.27-2.91-3.18-4.49-2.01-3.52-4.45-6.62-7.79-8.98-.52-.36-.98-.83-1.39-1.31-2.85-3.27-2.1-7.74,1.77-9.72,1.9-.97,4.01-1.57,6.04-2.29,2.29-.82,2.49-1.09,2.27-3.47-.21-2.24-1.16-4.2-2.62-5.81-4.5-4.95-4.23-10.51-1.92-16.12,1.07-2.61,3-4.87,4.59-7.26.73-1.09,1.92-1.39,3.15-1.46,3.04-.17,6.07-.34,9,.78.35.14.76.12,1.38.21.25-.88.53-1.69.72-2.52,1.46-6.66,5.23-11.58,11.22-14.77,8.93-4.74,18.19-4.9,27.65-1.85.9.29,1.62.77,1.66,1.8.1,2.54.23,5.08.21,7.62-.01,1.89-1.08,3.25-2.5,4.44-4.3,3.58-8.57,7.2-12.81,10.85-2.8,2.41-5.34,5.07-7.28,8.24-5.28,8.63-5.51,17.35-.15,26.02,2.06,3.33,4.44,6.45,6.61,9.71,1.19,1.79,2.23,3.67,3.59,5.91Zm5.92,19.31c.17,2.07,1.31,3.18,2.36,4.39,1.42,1.64,2.86,2,5.02,1.27,7.3-2.45,14.85-3.79,22.54-4.18,10.17-.52,20.09.86,29.7,4.25,1.35.48,2.43.56,3.37-.69.23-.31.61-.52.89-.79,2.28-2.18,2.75-3.47-.6-5.07-6.3-3.01-13-4.34-19.84-5.17-7.25-.88-14.52-.73-21.77.04-6.21.66-12.32,1.86-18.12,4.27-1.17.48-2.28,1.08-3.55,1.69Z"/>
      <path class="cls-2" d="m281.81,190.17c.46-.86.81-1.64,1.28-2.35,1.77-2.66,3.54-5.32,5.38-7.93,11.99-16.95,1.74-36.71-15.27-41.32-1.84-.5-3.72-.85-5.74-1.3-.95-4.27-1.87-8.54-1.56-12.98.08-1.2.75-1.75,1.87-1.69,8.65.45,17.23,1.23,25.09,5.35,3.95,2.07,7.4,4.76,10.05,8.36,1.24,1.68,2.7,2.53,4.82,2.62,2.06.08,4.14.38,6.17.78,3.07.6,5.23,2.36,6.01,5.48.39,1.57,1.29,2.67,2.55,3.62,1.98,1.49,3.91,3.04,5.81,4.63,1.69,1.42,2.82,3.26,3.54,5.33.82,2.35.3,4.37-1.5,6.11-2.4,2.31-2.42,3.21-.12,5.64.82.87,1.75,1.64,2.65,2.43,3.24,2.84,4.18,5.93,2.48,9.87-.93,2.16-2.24,4.28-3.84,6-5.4,5.8-12.08,9.05-20.12,9.22-2.82.06-5.59.46-8.06,1.94-1.04.62-1.95.49-2.91-.11-1.97-1.22-3.95-2.42-5.92-3.64-3.6-2.25-7.33-4.24-11.43-5.44-.36-.11-.7-.33-1.25-.6Zm-1.05-55.74c.93.66,1.54,1.11,2.17,1.53,1.47.97,2.98,1.87,4.41,2.89,5.48,3.89,10.04,8.61,13.36,14.53,5.35,9.52,4.71,23.58-3.35,31.45-1.24,1.21-2.18,2.76-3.1,4.25-1.19,1.93-.84,2.9,1.34,3.5.92.25,2.17.27,2.97-.16,1.58-.87,3.25-1.89,4.35-3.27,2.44-3.05,4.7-6.27,6.75-9.6,3.19-5.17,4.08-10.92,3.13-16.86-2.21-13.68-14.21-25.83-27.91-28.38-1.2-.22-2.46-.51-4.12.12Z"/>
      <path class="cls-2" d="m256.97,185.44c-6.67.21-13.04.42-19.58.62-.33-.94-.63-1.74-.88-2.55-2.77-9.09-6.66-17.63-12.54-25.15-.9-1.15-.88-2.03-.18-3.22,6.6-11.35,9.07-23.79,9.33-36.74.08-3.82-.31-7.66-.74-11.46-.26-2.29.15-3.94,2.12-5.35,2.33-1.67,4.4-3.7,6.63-5.52,1.62-1.32,1.79-1.34,3.58-.18,4.03,2.6,8.01,5.26,12.04,7.86.91.59,1.28,1.28,1.22,2.37-.14,2.47-.14,4.95-.26,7.43-.43,8.87.46,17.58,3.52,25.94,1.26,3.42,3,6.69,4.73,9.91.69,1.28.78,2.25.12,3.53-3.81,7.35-6.44,15.12-7.85,23.28-.33,1.89-.52,3.8-.77,5.69-.15,1.1-.3,2.2-.49,3.54Zm-12.6-20.32c.18-.13.36-.2.43-.32,2.6-4.66,5.27-9.29,7.73-14.02.49-.95.54-2.39.23-3.44-.52-1.82-1.38-3.56-2.28-5.24-1.61-3-4.15-4.68-7.61-4.35-4.04.38-7.02,2.52-8.73,6.21-1.29,2.78-1.19,5.62.48,8.23,2.35,3.69,4.81,7.33,7.26,10.96.61.91,1.28,1.84,2.49,1.98Z"/>
      <path class="cls-2" d="m282.44,324.51c7.3-.02,13.8-2.42,20.49-3.87,2.8-.61,5.66-1.36,8.53-.7,1.67.38,3.39,1.02,4.82,1.94,4.17,2.71,7.79,6.1,11.05,9.86,3.36,3.87,3.97,8.19,2.31,12.97-.64,1.84-1.75,2.94-3.65,3.38-1.55.35-3.11.77-4.59,1.33-2.34.9-2.74,1.81-2.05,4.26.93,3.3,2.11,6.53,2.17,10.03.04,2.3-.32,4.42-1.64,6.37-.82,1.21-1.8,1.76-3.23,1.46-3.41-.7-6.1.61-8.36,3.04-1.14,1.23-2.18,2.55-3.26,3.83-1.62,1.89-3.64,2.96-6.11,3.46-6.88,1.39-13.72,2.97-20.59,4.42-3.44.73-6.91,1.25-10.43,0-.13-.48-.34-.93-.35-1.39-.11-3.61.29-7.16,1.2-10.67.3-1.15,1.1-1.45,2.04-1.73,2.68-.79,5.35-1.59,8.03-2.39.23-.07.46-.12.69-.2,9-3.07,12.98-9.02,12.5-18.57-.14-2.83-.69-5.55-1.77-8.15-2.19-5.23-4.46-10.42-6.68-15.63-.39-.91-.68-1.87-1.09-3.04Zm3.24,49.96c.09.18.18.37.27.55.52.03,1.05.15,1.56.09,6.09-.69,10.57-3.77,13.49-9.13,4.06-7.45,5.03-15.37,3.56-23.66-.89-5-2.47-9.74-5.51-13.89-1.46-1.99-4.34-2.59-6.53-1.42-.86.46-1.11,1.06-.75,1.97.38.96.71,1.95,1.09,2.91,1.55,3.93,3.22,7.82,4.63,11.8,3.02,8.5,1.49,16.18-4.56,22.9-1.87,2.08-3.84,4.06-5.75,6.1-.53.56-1,1.17-1.5,1.76Z"/>
      <path class="cls-2" d="m215.11,322.02c-1.02,1.45-1.65,2.56-2.49,3.49-1.6,1.78-3.2,3.6-5.01,5.15-7.28,6.23-7.29,15.46-3.57,22.48,1.83,3.46,4.52,6.17,7.6,8.52,4.62,3.51,9.73,6.16,15.15,8.13,2.58.94,3.94,2.42,4.21,5.14.22,2.21.72,4.39,1.16,6.96-1.25-.12-2.24-.15-3.2-.32-3.46-.62-6.88-1.55-10.36-1.87-3.48-.33-7.01-.05-10.51-.1-1.34-.02-2.76.09-3.99-.33-4.6-1.6-9.13-3.4-13.69-5.11-1.67-.63-3.11-1.44-4.1-3.1-.47-.78-1.58-1.28-2.5-1.67-.94-.39-2.01-.51-3.02-.72-3.29-.66-5.91-2.39-7.91-5.03-3.77-4.99-5.83-10.47-4.41-16.8.36-1.61,1.11-3.15,1.79-4.68.71-1.6,1.98-2.35,3.77-2.47,3.76-.26,4.43-1.76,2.26-4.92-.76-1.11-1.67-2.15-2.61-3.12-2.14-2.21-2.49-4.79-1.46-7.54.52-1.4,1.23-2.83,2.22-3.93,4.56-5.05,10.22-7.86,17.13-7.69,2.58.07,5.09.56,6.93,2.96-.82,1-1.61,1.98-2.41,2.95-2.39,2.9-4.91,5.7-7.14,8.71-3.74,5.05-5.75,10.73-4.85,17.07.33,2.33,1.17,4.64,2.13,6.81,1.36,3.09,3.41,5.78,5.78,8.19,9.11,9.29,20.1,14.81,33.03,16.43.47.06.96.07,1.43.06.22,0,.44-.13.84-.25-.51-1.64-1.76-2.49-3.11-3.11-2.32-1.07-4.68-2.06-7.06-2.99-5.62-2.18-10.94-4.91-15.57-8.82-1.82-1.54-3.61-3.19-5.13-5.02-5.89-7.15-6.63-16.45-1.64-24.59,2.28-3.72,5.3-6.99,8.05-10.41,1.04-1.3,2.57-1.73,4.13-1.26,2.58.77,5.11,1.74,8.12,2.78Z"/>
      <path class="cls-2" d="m258.48,284.89c-8.61-.18-16.11-3.06-22.1-9.36-11.97-12.58-8.21-31.5,7.63-38.61,12.16-5.46,27.37-1.81,35.59,8.54,9.95,12.52,6.04,29.59-8.36,36.55-4.02,1.94-8.27,2.9-12.75,2.88Zm-1.49-34.69c-6.28,0-11.31,4.94-11.39,11.17-.08,6.27,5.07,11.42,11.41,11.41,6.3-.01,11.28-4.94,11.32-11.2.04-6.41-4.91-11.38-11.34-11.38Z"/>
      <path class="cls-2" d="m241.3,326.25h16.75c.31,1.21.62,2.26.85,3.32,1.21,5.38,2.19,10.81,3.67,16.12,1.11,3.98,2.73,7.83,4.34,11.65.77,1.82.75,3.23-.4,4.89-3.8,5.45-5.63,11.64-6.1,18.19-.31,4.3-.29,8.62-.23,12.94.02,1.73-.48,2.83-1.96,3.72-2.4,1.43-4.74,2.98-7.04,4.57-1.23.85-2.28.84-3.5-.02-1.24-.88-2.53-1.71-3.89-2.37-1.89-.92-2.59-2.44-2.8-4.4-.44-4.21-.94-8.42-1.44-12.62-.93-7.73-3.49-14.9-7.42-21.61-1.29-2.21-2.5-4.46-3.63-6.75-1.62-3.28-1.39-6.54.62-9.57,3.93-5.93,7.95-11.8,11.93-17.69.13-.2.28-.39.25-.35Zm6.13,10.23c-2.04,5.03-5.65,7.94-9.3,10.82-1.06.84-2.07,1.76-3.11,2.63-.7.58-.95,1.24-.5,2.1,1.89,3.6,4.28,6.76,7.95,8.71,1.8.96,3.78,1.29,5.81,1.03,2.78-.36,4.84-1.8,5.52-4.59.41-1.67.64-3.49.46-5.19-.5-4.75-2.13-9.16-4.85-13.11-.48-.7-1.08-1.31-1.99-2.39Z"/>
      <path class="cls-2" d="m200.33,309.73c1.76-2.42,3.88-4.11,6.17-5.53.54-.33,1.53-.06,2.28.11,5.22,1.14,10.4,2.55,15.66,3.44,4.95.84,9.98,1.36,15,1.65,11.5.66,23.02.75,34.5-.41,6.6-.67,13.15-1.69,19.48-3.82,1.06-.36,2.15-.61,3.22-.95,3.81-1.21,7.07-.34,9.87,2.49,1.87,1.89,3.42,3.96,4.38,6.78-.88.25-1.6.55-2.34.65-12.2,1.57-24.38,3.36-36.61,4.6-10.74,1.09-21.55.96-32.34.32-9.2-.55-18.29-1.76-27.12-4.47-3.35-1.03-6.6-2.4-9.88-3.66-.72-.28-1.38-.72-2.26-1.19Z"/>
      <path class="cls-2" d="m211.54,298.55c.5-1.97,1.48-3.43,2.67-4.69,4.58-4.81,9.85-8.83,14.99-13.14.44.34.78.54,1.04.82,5.7,6.04,12.79,9.41,20.85,10.95,9.85,1.88,19.4,1.09,28.55-3.19.87-.4,1.72-.85,2.52-1.38,1.2-.8,2.41-.88,3.58-.08,3.86,2.63,7.18,5.81,9.85,10.08-.88.35-1.56.69-2.28.9-6.22,1.86-12.58,2.96-19.01,3.77-10.42,1.31-20.88,1.44-31.35.94-9.83-.47-19.57-1.69-29.1-4.23-.74-.2-1.46-.47-2.32-.75Z"/>
      <path class="cls-1" d="m117.15,265.52c-1.87-2.05-2.29-4.18-2.57-6.26-1.72-12.87,1.92-24.19,10.26-34.01,4.13-4.87,9.58-7.64,15.78-8.89,4.53-.91,8.7,1,10.87,4.78.82,1.44.75,2.17-.74,2.9-1.02.5-2.3.84-3.41.71-7.59-.88-13.77,1.76-18.98,7.15-4.94,5.11-7.74,11.33-9.2,18.14-.85,3.96-1.09,8.05-1.61,12.08-.13.99-.25,1.98-.42,3.39Z"/>
      <path class="cls-1" d="m211.28,254.76c-.09,7.88-5.04,14.27-12.26,15.71-2.31.46-4.28-.11-5.85-1.89-1.09-1.24-1.06-1.97.22-3.03.6-.49,1.35-.88,2.1-1.08,3.56-.98,5.73-3.36,6.92-6.73,2.94-8.3,1.77-16.21-2.44-23.77-.57-1.02-1.57-1.8-2.34-2.71-1.1-1.29-1.44-2.62-.88-3.22.61-.65,1.71-.36,3.07,1.02,5.78,5.85,9.44,12.83,10.88,20.93.28,1.57.39,3.17.58,4.75Z"/>
      <path class="cls-1" d="m153.27,272.42c-.41,1.19-.66,2-.95,2.79-3.74,10.08.53,19.45,10.63,23.22,3.95,1.48,7.99,2.19,12.21,1.44.66-.12,1.36-.02,2.19.37-.38.31-.72.75-1.15.91-8.51,3.27-16.87,3.07-24.94-1.37-1.36-.75-2.68-1.84-3.6-3.09-3.71-5.06-5.27-10.72-3.8-16.95.85-3.6,3.02-6.13,6.72-7.07.73-.18,1.51-.16,2.68-.27Z"/>
      <path class="cls-1" d="m341.56,265.99c1.11,1.41,2.32,2.6,3.1,4.02,3.35,6.08,8.77,6.86,14.85,5.99,3.86-.55,7.38-2.05,10.58-4.25,8.7-5.99,14.66-13.9,16.87-24.39.13-.62.21-1.28.47-1.85.17-.38.72-.94.9-.88.44.16.95.58,1.1,1.01.24.66.24,1.41.26,2.12.18,5.22-1.09,10.16-3.31,14.82-4.73,9.95-11.92,17.31-22.62,20.75-7.65,2.45-14.67,1.33-20.78-4.12-1.63-1.46-2.95-3.16-3.59-5.28-.88-2.92-.25-5.48,2.16-7.94Z"/>
      <path class="cls-1" d="m318.08,239.57c-2.05,3.33-3.93,6.48-5.91,9.56-1.78,2.78-3.23,5.69-4.06,8.9-1.14,4.44-1.02,8.88.08,13.29,1.11,4.44,2.77,8.67,5.16,12.6,2.02,3.32,4.51,6.19,7.74,8.4,1.32.9,2.59,1.88,3.79,2.93.94.82,1.87,1.72,1.91,3.46-.9-.21-1.66-.32-2.38-.56-3.1-1.01-5.76-2.79-8.16-4.93-9.56-8.48-15.23-19.06-16.36-31.81-.67-7.55,1.3-14.44,6.87-19.97,1.51-1.49,3.26-2.55,5.29-3.16,2.07-.62,3.91-.16,6.03,1.29Z"/>
      <path class="cls-1" d="m352.98,243.13c-.2-2.1.85-3.43,2.17-4.23,3.11-1.87,4.95-4.52,5.46-8.03.62-4.24.06-8.29-2.47-11.91-4.31-6.17-10.36-9.65-17.59-11.09-2.47-.49-5.08-.32-7.62-.45-.54-.03-1.09,0-2.12,0,.64-.61.93-1.1,1.33-1.23,2.12-.67,4.24-1.55,6.43-1.81,8.04-.97,15.43.82,21.84,5.92,7.99,6.36,10.15,16.96,5.3,25.65-2.23,4-5.45,6.64-10.14,7.17-.83.09-1.69.01-2.59.01Z"/>
      <path class="cls-1" d="m221.3,213.11c1.26-.6,2.38-1.2,3.55-1.69,5.81-2.4,11.91-3.61,18.12-4.27,7.25-.77,14.52-.91,21.77-.04,6.84.83,13.54,2.16,19.84,5.17,3.35,1.6,2.88,2.9.6,5.07-.29.28-.66.48-.89.79-.93,1.24-2.02,1.16-3.37.69-9.61-3.39-19.53-4.76-29.7-4.25-7.69.39-15.24,1.73-22.54,4.18-2.16.73-3.61.36-5.02-1.27-1.05-1.21-2.19-2.32-2.36-4.39Z"/>
      <path class="cls-1" d="m280.76,134.43c1.66-.63,2.91-.34,4.12-.12,13.69,2.55,25.7,14.7,27.91,28.38.96,5.94.07,11.68-3.13,16.86-2.05,3.32-4.31,6.54-6.75,9.6-1.1,1.38-2.77,2.4-4.35,3.27-.79.44-2.05.42-2.97.16-2.18-.6-2.53-1.57-1.34-3.5.92-1.49,1.86-3.04,3.1-4.25,8.06-7.87,8.69-21.93,3.35-31.45-3.32-5.91-7.88-10.64-13.36-14.53-1.43-1.02-2.94-1.92-4.41-2.89-.63-.42-1.24-.87-2.17-1.53Z"/>
      <path class="cls-1" d="m244.37,165.12c-1.21-.13-1.88-1.07-2.49-1.98-2.45-3.63-4.9-7.27-7.26-10.96-1.67-2.61-1.77-5.46-.48-8.23,1.71-3.68,4.69-5.83,8.73-6.21,3.46-.32,6,1.35,7.61,4.35.9,1.68,1.76,3.43,2.28,5.24.3,1.05.26,2.49-.23,3.44-2.47,4.73-5.13,9.36-7.73,14.02-.07.12-.25.19-.43.32Z"/>
      <path class="cls-1" d="m285.68,374.47c.5-.59.97-1.2,1.5-1.76,1.91-2.04,3.88-4.02,5.75-6.1,6.04-6.72,7.58-14.4,4.56-22.9-1.41-3.98-3.09-7.87-4.63-11.8-.38-.96-.71-1.95-1.09-2.91-.35-.9-.1-1.51.75-1.97,2.18-1.17,5.07-.57,6.53,1.42,3.05,4.15,4.62,8.88,5.51,13.89,1.48,8.29.5,16.21-3.56,23.66-2.92,5.36-7.4,8.44-13.49,9.13-.51.06-1.04-.06-1.56-.09-.09-.18-.18-.37-.27-.55Z"/>
      <path class="cls-1" d="m257,250.2c6.43,0,11.38,4.96,11.34,11.38-.04,6.26-5.02,11.18-11.32,11.2-6.34.01-11.49-5.13-11.41-11.41.07-6.22,5.11-11.16,11.39-11.17Z"/>
      <path class="cls-1" d="m247.44,336.48c.91,1.09,1.51,1.7,1.99,2.39,2.72,3.96,4.36,8.36,4.85,13.11.18,1.7-.05,3.52-.46,5.19-.68,2.78-2.74,4.22-5.52,4.59-2.03.27-4.01-.07-5.81-1.03-3.67-1.96-6.06-5.11-7.95-8.71-.45-.86-.2-1.52.5-2.1,1.04-.87,2.05-1.78,3.11-2.63,3.64-2.88,7.26-5.79,9.3-10.82Z"/>
    </g>
  </g>
</svg>