<svg width="42" height="42" viewBox="0 0 42 42" fill="none" xmlns="http://www.w3.org/2000/svg">
<g clip-path="url(#clip0_4_2218)">
<path fill-rule="evenodd" clip-rule="evenodd" d="M38.3158 6.91033C33.5528 2.19058 25.9363 2.09214 21.0026 6.53233C16.0676 2.09214 8.45382 2.19058 3.68813 6.91033C-1.22193 11.7718 -1.22193 19.6534 3.68813 24.5175C5.09119 25.9075 18.1952 38.8776 18.1952 38.8776C19.7479 40.4158 22.2587 40.4158 23.8101 38.8776C23.8101 38.8776 38.1583 24.6737 38.3171 24.5175C43.2285 19.6534 43.2285 11.7718 38.3158 6.91033ZM36.4455 22.6643L21.9384 37.0243C21.4226 37.5375 20.5813 37.5375 20.0681 37.0243L5.56107 22.6643C1.68919 18.8318 1.68919 12.5961 5.56107 8.76358C9.29382 5.06889 15.2946 4.93895 19.2229 8.4722L21.0026 10.0735L22.7811 8.4722C26.7107 4.93895 32.7114 5.06758 36.4442 8.76358C40.3161 12.5948 40.3161 18.8305 36.4455 22.6643Z" fill="white"/>
<path fill-rule="evenodd" clip-rule="evenodd" d="M12.1446 9.84506C12.1419 9.84506 12.1419 9.84637 12.1393 9.84637C9.0615 9.849 6.56644 12.3441 6.56644 15.4232C6.56644 15.7854 6.86044 16.0794 7.22269 16.0794C7.58494 16.0794 7.87894 15.7854 7.87894 15.4232V15.4219C7.87894 13.0672 9.78862 11.1576 12.1432 11.1576H12.1446C12.5068 11.1576 12.8008 10.8636 12.8008 10.5013C12.8008 10.1391 12.5081 9.84506 12.1446 9.84506Z" fill="white"/>
</g>
<defs>
<clipPath id="clip0_4_2218">
<rect width="42" height="42" fill="white"/>
</clipPath>
</defs>
</svg>
