<svg width="42" height="42" viewBox="0 0 42 42" fill="none" xmlns="http://www.w3.org/2000/svg">
<path d="M38.7926 11.2055L30.2039 5.43868C29.8266 5.18438 29.3508 5.18438 28.9652 5.43868L21 10.7871L13.0348 5.43868C12.6574 5.18438 12.1734 5.18438 11.7961 5.43868L3.20742 11.2055C2.84648 11.4434 2.625 11.8863 2.625 12.3539V35.4047C2.625 35.8887 2.85469 36.3316 3.23203 36.5777C3.60938 36.8156 4.07695 36.8074 4.44609 36.5613L12.4113 31.2129L20.3766 36.5613C20.7621 36.8156 21.2297 36.8156 21.6152 36.5613L29.5887 31.2129L37.5539 36.5613C37.7426 36.6844 37.9559 36.7582 38.1691 36.7582C38.3742 36.7582 38.5793 36.7008 38.7598 36.5859C39.1371 36.3481 39.3668 35.8969 39.3668 35.4129V12.3621C39.375 11.8863 39.1535 11.4434 38.7926 11.2055ZM11.0742 28.9734L5.25 33.0258V13.1988L11.0742 9.14649V28.9734ZM13.6992 28.9406V18.9C13.7812 18.9574 13.8633 19.0066 13.9371 19.0641L14.7 17.9977C14.3883 17.7762 14.0437 17.5629 13.6992 17.3824V9.10547L19.6875 13.125V22.0418C19.2363 21.8859 18.7934 21.6809 18.3422 21.3938L17.6449 22.5094C18.2027 22.8621 18.7605 23.1246 19.343 23.3133L19.6875 22.2633V32.952L13.6992 28.9406ZM22.3125 32.952V23.6496C22.3289 23.6496 22.3453 23.6496 22.3535 23.6496C22.5914 23.6332 22.8293 23.6086 23.0508 23.5758L22.8457 22.2797C22.6734 22.3043 22.493 22.3289 22.3043 22.3371V13.125L28.2926 9.10547V18.8836L27.8578 18.4898C27.6117 18.7606 27.382 19.0313 27.1523 19.2856C27.0047 19.4578 26.857 19.6219 26.7176 19.7859L27.702 20.6555C27.8496 20.4914 27.9973 20.3191 28.1449 20.1469C28.1941 20.0895 28.2434 20.032 28.3008 19.9746V28.9324L22.3125 32.952ZM36.75 32.952L30.9258 28.9816V17.727C31.2211 17.5957 31.5328 17.4973 31.8363 17.4316L31.5738 16.1438C31.3523 16.1848 31.1391 16.2504 30.9176 16.316V9.13829L36.7418 13.1168V32.952H36.75Z" fill="white"/>
<path d="M8.11292 21C8.26877 20.516 8.40002 20.0977 8.69534 19.6629L7.61252 18.9246C7.21057 19.5152 7.0301 20.0649 6.85784 20.6063L6.84143 20.6719L8.08831 21.0738L8.11292 21Z" fill="white"/>
<path d="M10.5656 18.1371C10.7461 18.0387 10.4508 18.0469 10.6477 17.9895L10.2457 16.7426C9.975 16.8328 9.7125 16.9395 9.4582 17.0789C9.14648 17.2512 8.82656 17.4809 8.53125 17.7598L9.42539 18.7195C9.63867 18.5145 10.3441 18.252 10.5656 18.1371Z" fill="white"/>
<path d="M24.3059 21.8285L24.8801 23.0098C25.4215 22.7473 25.9301 22.4027 26.4469 21.9434L25.5774 20.959C25.1508 21.3363 24.7407 21.6234 24.3059 21.8285Z" fill="white"/>
<path d="M16.2258 19.507C16.1437 19.4086 16.0617 19.3102 15.9797 19.2117L14.9789 20.0649C15.0609 20.1633 15.1429 20.2535 15.2168 20.352C15.5121 20.7047 15.8156 21.0656 16.1683 21.402L17.0707 20.4504C16.7754 20.1633 16.5129 19.8434 16.2258 19.507Z" fill="white"/>
<path d="M33.4442 18.8426L34.2891 17.9895L35.134 18.8426L36.0692 17.9074L35.2161 17.0625L36.0692 16.2176L35.134 15.2824L34.2891 16.1356L33.4442 15.2824L32.509 16.2176L33.3622 17.0625L32.509 17.9074L33.4442 18.8426Z" fill="white"/>
</svg>
