<svg width="32" height="44" viewBox="0 0 32 44" fill="none" xmlns="http://www.w3.org/2000/svg">
<path d="M32 15.9996C32 12.8341 31.0786 9.81072 29.3465 7.19526L31.9817 4.49997L30.2005 2.75901L14.4088 18.9117L10.1176 13.0421L8.10785 14.5114L14.1349 22.7562L27.563 9.01971C28.8374 11.1203 29.5098 13.5087 29.5098 15.9996C29.5098 22.3284 25.0267 27.8831 18.8495 29.2073C18.4305 29.2966 18.0885 29.5947 17.9413 29.9968L16.2545 34.6052C16.1498 34.6045 16.0597 34.6037 15.9996 34.6037C15.9279 34.6037 15.8209 34.6045 15.6906 34.6059L13.921 29.9529C13.7724 29.5625 13.4376 29.2717 13.0297 29.1802C6.9228 27.8113 2.49095 22.2677 2.49095 15.9989C2.49095 8.55023 8.55023 2.49022 16.0004 2.49022C18.4935 2.49022 20.9295 3.17576 23.0455 4.47213L24.347 2.34959C21.8392 0.81225 18.9527 0 16.0004 0C7.17695 0 0 7.17768 0 15.9996C0 23.1956 4.93356 29.586 11.8249 31.4485L13.0692 34.718C9.33098 34.9883 3.48777 35.895 3.48777 38.9221C3.48777 43.1195 14.7186 43.2411 15.9989 43.2411C17.2792 43.2411 28.5115 43.1195 28.5115 38.9221C28.5115 35.8774 22.6009 34.978 18.8656 34.7136L20.0484 31.4814C27.0144 29.6621 32 23.2608 32 15.9996ZM25.9334 38.9221C25.1607 39.6435 21.5543 40.7509 15.9996 40.7509C10.445 40.7509 6.84004 39.6435 6.06807 38.9221C6.74336 38.2929 9.58294 37.3679 13.9928 37.1445L14.8366 39.3644C15.0211 39.8478 15.4847 40.1672 16.0011 40.1672C16.004 40.1672 16.0055 40.1672 16.0084 40.1672C16.5292 40.1635 16.9913 39.8383 17.17 39.3498L17.9786 37.143C22.4053 37.3635 25.2566 38.29 25.9334 38.9221Z" fill="#B9B9B9"/>
</svg>
